<svg width="100" height="104" viewBox="0 0 100 104" fill="none" xmlns="http://www.w3.org/2000/svg">
<path d="M41.9013 81.6142C41.5986 81.6142 41.3361 81.405 41.2687 81.11L41.0635 80.214C40.1641 76.2848 37.7479 73.4051 35.19 70.3564C32.7366 67.432 30.2001 64.4089 28.4214 59.9731C24.5528 50.3219 27.1274 42.7639 27.4337 41.934L27.4495 41.8926C27.4707 41.8394 27.4897 41.7859 27.506 41.732C30.3714 32.525 39.4232 26.1034 49.5224 26.1034C59.6214 26.1034 68.6732 32.5249 71.5347 41.7196C71.5549 41.7859 71.5739 41.8394 71.5951 41.8926L71.6109 41.934C71.9173 42.764 74.4918 50.3219 70.6232 59.9735C68.8445 64.4089 66.308 67.4324 63.8548 70.3561C61.2965 73.4051 58.8804 76.2848 57.981 80.214L57.7758 81.11C57.7082 81.405 57.4457 81.6142 57.1432 81.6142H41.9013Z" fill="#D5D5D5"/>
<path d="M72.6952 60.7631C68.6348 70.8884 60.7746 74.3588 59.7138 82.2043C59.5796 83.1966 58.6867 83.9348 57.6378 83.9348H41.4066C40.3578 83.9348 39.4648 83.1966 39.3305 82.2043C38.2698 74.3588 30.4095 70.8884 26.3492 60.7631C22.0606 50.064 25.1142 41.6433 25.3526 41.0185C25.3633 40.9947 25.3669 40.9811 25.3669 40.9811C28.4526 31.0359 38.0975 23.7832 49.5221 23.7832C60.9467 23.7832 70.5917 31.0359 73.6774 40.9811C73.6774 40.9811 73.6809 40.9947 73.6916 41.0185C73.9301 41.6433 76.9838 50.0639 72.6952 60.7631Z" stroke="#306E57" stroke-width="4" stroke-miterlimit="10" stroke-linecap="round"/>
<path d="M40.4031 88.0923H58.6015" stroke="#306E57" stroke-width="4" stroke-miterlimit="10" stroke-linecap="round"/>
<path d="M40.9763 92.2498H58.0278" stroke="#306E57" stroke-width="4" stroke-miterlimit="10" stroke-linecap="round"/>
<path d="M41.7431 95.3671H57.242C57.7217 95.3671 58.0867 95.7913 58.02 96.2663C57.7179 98.4181 56.2849 103.686 49.4926 103.686C42.7002 103.686 41.2671 98.4181 40.9652 96.2663C40.8984 95.7912 41.2635 95.3671 41.7431 95.3671Z" fill="#306E57"/>
<path d="M54.7529 29.4943C54.7529 29.4943 66.3792 32.0975 68.7519 44.4343" stroke="#306E57" stroke-width="4" stroke-miterlimit="10" stroke-linecap="round"/>
<path d="M49.5222 2V15.5227" stroke="#306E57" stroke-width="4" stroke-miterlimit="10" stroke-linecap="round"/>
<path d="M17.947 13.8294L26.8607 23.9983" stroke="#306E57" stroke-width="4" stroke-miterlimit="10" stroke-linecap="round"/>
<path d="M2.00024 43.5383L15.4064 45.3096" stroke="#306E57" stroke-width="4" stroke-miterlimit="10" stroke-linecap="round"/>
<path d="M9.5918 76.3909L20.8407 68.8859" stroke="#306E57" stroke-width="4" stroke-miterlimit="10" stroke-linecap="round"/>
<path d="M81.0973 13.8294L72.1836 23.9983" stroke="#306E57" stroke-width="4" stroke-miterlimit="10" stroke-linecap="round"/>
<path d="M97.0441 43.5383L83.6379 45.3096" stroke="#306E57" stroke-width="4" stroke-miterlimit="10" stroke-linecap="round"/>
<path d="M89.4528 76.3909L78.2039 68.8859" stroke="#306E57" stroke-width="4" stroke-miterlimit="10" stroke-linecap="round"/>
</svg>
