<svg width="100" height="99" viewBox="0 0 100 99" fill="none" xmlns="http://www.w3.org/2000/svg">
<path d="M40.5036 69.9106C46.9952 69.9106 52.2577 64.6481 52.2577 58.1565C52.2577 51.6649 46.9952 46.4025 40.5036 46.4025C34.012 46.4025 28.7495 51.6649 28.7495 58.1565C28.7495 64.6481 34.012 69.9106 40.5036 69.9106Z" fill="#D5D5D5"/>
<path d="M72.2788 36.404C73.6938 38.467 74.913 40.6747 75.91 43.0005C76.907 45.3262 77.6812 47.7699 78.2065 50.3048C78.7317 52.8397 79.0076 55.466 79.0076 58.1565C79.0076 63.4728 77.9301 68.5374 75.9818 73.144C74.0335 77.7506 71.214 81.899 67.7302 85.3829C64.2463 88.8667 60.0978 91.6862 55.4913 93.6345C50.8847 95.583 45.8202 96.6603 40.5038 96.6603C35.1874 96.6603 30.1229 95.5829 25.5163 93.6345C20.9097 91.6862 16.7613 88.8667 13.2774 85.3829C9.79362 81.899 6.97412 77.7505 5.02578 73.144C3.07745 68.5374 2 63.4729 2 58.1565C2 52.8403 3.07745 47.7756 5.02578 43.169C6.97412 38.5624 9.79362 34.414 13.2774 30.9302C16.7613 27.4463 20.9098 24.6268 25.5163 22.6785C30.1229 20.7302 35.1874 19.6527 40.5038 19.6527C43.1295 19.6527 45.6937 19.9156 48.1717 20.4163C50.6498 20.9171 53.0415 21.6558 55.3222 22.6075C57.6029 23.5593 59.7723 24.7242 61.8059 26.0772" stroke="#306E57" stroke-width="4" stroke-miterlimit="10" stroke-linecap="round"/>
<path d="M63.3518 42.8854C64.3268 44.3412 65.1663 45.8953 65.8524 47.5298C66.5384 49.1644 67.071 50.8792 67.4321 52.6564C67.7931 54.4335 67.9827 56.2729 67.9827 58.1566C67.9827 61.9507 67.2137 65.5651 65.8233 68.8525C64.4328 72.14 62.4208 75.1006 59.9343 77.5869C57.448 80.0732 54.4874 82.0854 51.1999 83.4758C47.9125 84.8663 44.298 85.6352 40.504 85.6352C36.71 85.6352 33.0956 84.8662 29.8081 83.4758C26.5207 82.0852 23.5601 80.0732 21.0737 77.5869C18.5874 75.1006 16.5753 72.14 15.1848 68.8525C13.7942 65.565 13.0254 61.9506 13.0254 58.1566C13.0254 54.3626 13.7944 50.7482 15.1848 47.4607C16.5753 44.1732 18.5873 41.2127 21.0737 38.7263C23.5601 36.24 26.5207 34.2279 29.8081 32.8374C33.0956 31.4468 36.7101 30.678 40.504 30.678C42.4144 30.678 44.2791 30.8729 46.0795 31.2439C47.8799 31.615 49.616 32.1622 51.269 32.8667C52.922 33.5712 54.4919 34.433 55.9596 35.4333" stroke="#306E57" stroke-width="4" stroke-miterlimit="10" stroke-linecap="round"/>
<path d="M53.7486 52.6534C54.4535 54.3479 54.8426 56.2067 54.8426 58.1565C54.8426 62.1161 53.2377 65.7008 50.6429 68.2957C48.0482 70.8906 44.4634 72.4954 40.5037 72.4954C36.5441 72.4954 32.9594 70.8904 30.3645 68.2957C27.7696 65.7009 26.1648 62.1161 26.1648 58.1565C26.1648 54.1969 27.7698 50.6122 30.3645 48.0173C32.9593 45.4224 36.5441 43.8176 40.5037 43.8176C42.5135 43.8176 44.4269 44.2311 46.1631 44.9777" stroke="#306E57" stroke-width="4" stroke-miterlimit="10" stroke-linecap="round"/>
<path d="M91.2804 7.84358L40.5037 58.1566" stroke="#306E57" stroke-width="4" stroke-miterlimit="10" stroke-linecap="round"/>
<path d="M91.1128 8.01255L99.1253 9.44516L87.415 21.1555L79.3991 19.7263L77.97 11.7104L89.6803 2.28882e-05L91.1128 8.01255Z" fill="#306E57"/>
</svg>
